<svg width="101" height="101" viewBox="0 0 101 101" fill="none" id="svg710503695_13396">
<g filter="url(#svg710503695_13396_filter0_d_2024_4427)">
<rect width="100.697" height="100.697" rx="12" fill="white"></rect>
<g clip-path="url(#svg710503695_13396_clip0_2024_4427)">
<mask id="svg710503695_13396_mask0_2024_4427" style="mask-type:luminance" maskUnits="userSpaceOnUse" x="13" y="24" width="74" height="52">
<path d="M13.7471 24.8501H86.7131V75.819H13.7471V24.8501Z" fill="white"></path>
</mask>
<g mask="url(#svg710503695_13396_mask0_2024_4427)">
<path fill-rule="evenodd" clip-rule="evenodd" d="M44.0435 30.4296C46.3988 27.9777 49.6769 26.4594 53.2984 26.4594C58.127 26.4594 62.3118 29.1419 64.5652 33.139C66.5654 32.2448 68.7319 31.7832 70.9229 31.7843C79.6144 31.7843 86.6696 38.8931 86.6696 47.6651C86.6696 56.4371 79.6144 63.546 70.9229 63.546C69.8606 63.546 68.8251 63.4392 67.8111 63.2375C65.8394 66.7516 62.0704 69.1391 57.7783 69.1391C56.0308 69.1426 54.3057 68.7462 52.735 67.9803C50.7365 72.6748 46.0823 75.9743 40.6635 75.9743C35.0032 75.9743 30.2014 72.4065 28.3504 67.3901C27.5266 67.564 26.6869 67.6513 25.8449 67.6508C19.1116 67.6508 13.666 62.1247 13.666 55.3378C13.666 50.7774 16.1179 46.8072 19.7555 44.6612C18.9837 42.8834 18.5865 40.9658 18.5885 39.0278C18.5885 31.1946 24.9462 24.8638 32.7794 24.8638C37.3666 24.8638 41.4709 27.0501 44.0462 30.4435" fill="#00A1E0"></path>
</g>
<path fill-rule="evenodd" clip-rule="evenodd" d="M24.2998 51.3541C24.2539 51.4737 24.3162 51.4987 24.3309 51.5199C24.468 51.6191 24.6072 51.691 24.7467 51.7718C25.4925 52.1661 26.1953 52.2815 26.9303 52.2815C28.4272 52.2815 29.3581 51.4847 29.3581 50.2025V50.1772C29.3581 48.9915 28.3065 48.5596 27.3247 48.2512L27.1962 48.2096C26.4531 47.9687 25.812 47.7589 25.812 47.2707V47.2457C25.812 46.8272 26.1875 46.5187 26.767 46.5187C27.4108 46.5187 28.178 46.7331 28.6689 47.0043C28.6689 47.0043 28.8143 47.0982 28.8671 46.9579C28.8958 46.882 29.1461 46.2121 29.173 46.137C29.2014 46.0584 29.1515 45.9991 29.1003 45.9685C28.5369 45.6252 27.759 45.3918 26.9542 45.3918L26.8048 45.3923C25.434 45.3923 24.4763 46.2212 24.4763 47.4069V47.4324C24.4763 48.6825 25.5332 49.0903 26.5204 49.3719L26.6792 49.4213C27.3982 49.6423 28.0205 49.8344 28.0205 50.3387V50.3639C28.0205 50.828 27.6155 51.1741 26.9663 51.1741C26.7138 51.1741 25.9093 51.1698 25.0375 50.6188C24.9321 50.5574 24.872 50.5131 24.7907 50.4635C24.7478 50.4374 24.6405 50.3905 24.5938 50.5311L24.2987 51.3519M46.2154 51.3519C46.1695 51.4716 46.2317 51.4965 46.247 51.5177C46.3836 51.617 46.5233 51.6889 46.6628 51.7696C47.4086 52.164 48.1114 52.2793 48.8464 52.2793C50.3433 52.2793 51.2742 51.4826 51.2742 50.2003V50.1751C51.2742 48.9894 50.2253 48.5575 49.2408 48.249L49.1123 48.2074C48.3692 47.9665 47.7281 47.7568 47.7281 47.2685V47.2436C47.7281 46.8251 48.1036 46.5166 48.6831 46.5166C49.3269 46.5166 50.0914 46.7309 50.585 47.0021C50.585 47.0021 50.7304 47.096 50.7835 46.9557C50.812 46.8798 51.0625 46.21 51.0866 46.1349C51.1154 46.0563 51.0652 45.997 51.0142 45.9664C50.4509 45.623 49.6729 45.3896 48.8682 45.3896L48.7185 45.3902C47.3477 45.3902 46.39 46.2191 46.39 47.4048V47.4303C46.39 48.6804 47.4469 49.0881 48.4341 49.3698L48.5927 49.4191C49.3143 49.6402 49.9339 49.8323 49.9339 50.3366V50.3618C49.9339 50.8259 49.5289 51.1719 48.8797 51.1719C48.6267 51.1719 47.8201 51.1676 46.9509 50.6166C46.8455 50.5552 46.7838 50.5128 46.7039 50.4613C46.6768 50.4442 46.5504 50.3948 46.5072 50.5289L46.2121 51.3498M61.1809 48.8389C61.1809 49.5632 61.0457 50.1346 60.7812 50.5397C60.5172 50.9394 60.1186 51.1352 59.5633 51.1352C59.008 51.1352 58.611 50.941 58.3508 50.5423C58.0887 50.14 57.9565 49.5659 57.9565 48.8416C57.9565 48.1173 58.0895 47.5486 58.3508 47.1489C58.6105 46.7519 59.0053 46.5614 59.5633 46.5614C60.1213 46.5614 60.5183 46.7537 60.7812 47.1489C61.0473 47.5486 61.1809 48.1173 61.1809 48.8416M62.431 47.4976C62.3079 47.0818 62.1171 46.717 61.8623 46.4112C61.6072 46.1054 61.2855 45.8586 60.9019 45.6815C60.521 45.5031 60.0703 45.4133 59.5606 45.4133C59.0509 45.4133 58.603 45.5037 58.2193 45.6815C57.8384 45.8596 57.5138 46.1054 57.259 46.4112C57.0047 46.717 56.8137 47.0818 56.6903 47.4976C56.5682 47.9107 56.5063 48.3614 56.5063 48.8416C56.5063 49.3218 56.5682 49.7724 56.6903 50.1856C56.8129 50.6014 57.0041 50.9662 57.259 51.272C57.5141 51.5778 57.8384 51.8219 58.2193 51.9963C58.603 52.1701 59.0536 52.2586 59.5606 52.2586C60.0676 52.2586 60.5183 52.1701 60.8992 51.9963C61.2802 51.8225 61.6048 51.5778 61.8596 51.272C62.1142 50.9662 62.3049 50.6014 62.4283 50.1856C62.5501 49.7724 62.6121 49.3218 62.6121 48.8416C62.6121 48.3641 62.5501 47.9107 62.4283 47.4976M72.7026 50.9313C72.6615 50.8098 72.543 50.8557 72.543 50.8557C72.3613 50.9251 72.1674 50.9895 71.9608 51.0217C71.7527 51.0544 71.5209 51.0708 71.2768 51.0708C70.6732 51.0708 70.1903 50.8908 69.847 50.5343C69.5009 50.1775 69.3078 49.6034 69.3105 48.8255C69.3123 48.1173 69.4835 47.5861 69.7906 47.1784C70.0938 46.776 70.5605 46.5668 71.1775 46.5668C71.6926 46.5668 72.0869 46.6266 72.5 46.7559C72.5 46.7559 72.598 46.7985 72.6449 46.6695C72.7546 46.3664 72.8356 46.1491 72.9534 45.8164C72.9867 45.7212 72.9051 45.681 72.8753 45.6694C72.7133 45.6061 72.3308 45.5023 72.041 45.4586C71.7701 45.4173 71.4562 45.3958 71.1021 45.3958C70.5764 45.3958 70.1096 45.4857 69.7099 45.6638C69.3102 45.8417 68.9722 46.0877 68.7039 46.3935C68.4357 46.6993 68.2318 47.0641 68.095 47.4799C67.9595 47.893 67.8911 48.3464 67.8911 48.8266C67.8911 49.862 68.1701 50.7017 68.7227 51.316C69.2753 51.933 70.1069 52.2442 71.1907 52.2442C71.8318 52.2442 72.489 52.1146 72.9612 51.9276C72.9612 51.9276 73.0513 51.8842 73.0121 51.779L72.7036 50.9313M74.8899 48.1414C74.9498 47.739 75.06 47.4037 75.2333 47.1435C75.4927 46.7465 75.8879 46.5292 76.4432 46.5292C76.9984 46.5292 77.366 46.7476 77.6289 47.1435C77.8032 47.4051 77.8794 47.7525 77.9078 48.1414L74.8765 48.1409L74.8899 48.1414ZM79.1016 47.2562C78.9951 46.8565 78.7314 46.4514 78.5597 46.2663C78.2861 45.9739 78.0205 45.7674 77.7549 45.6547C77.3715 45.4917 76.959 45.408 76.5424 45.4087C76.0139 45.4087 75.5338 45.498 75.1448 45.6796C74.7558 45.8626 74.4285 46.1115 74.171 46.4227C73.9138 46.7339 73.7203 47.1014 73.5969 47.5226C73.4735 47.9384 73.4113 48.3944 73.4113 48.8719C73.4113 49.3601 73.476 49.8135 73.6031 50.2239C73.7316 50.637 73.9384 50.9992 74.2174 51.2996C74.4964 51.6028 74.8532 51.8388 75.2824 52.0051C75.7089 52.1701 76.2267 52.2557 76.8195 52.2538C78.0428 52.2498 78.6866 51.9775 78.9495 51.83C78.9964 51.8037 79.0407 51.7583 78.9854 51.6277L78.7091 50.8524C78.6667 50.7368 78.5498 50.7787 78.5498 50.7787C78.2467 50.8919 77.8174 51.0952 76.8115 51.0925C76.1542 51.0915 75.6687 50.8975 75.3629 50.5936C75.0517 50.2824 74.8961 49.829 74.872 49.1852L79.1104 49.1884C79.1104 49.1884 79.222 49.1874 79.2336 49.0785C79.2381 49.0334 79.3787 48.2093 79.1072 47.257L79.1016 47.2562ZM41.009 48.1414C41.0688 47.739 41.1794 47.4037 41.3524 47.1435C41.6121 46.7465 42.0069 46.5292 42.5622 46.5292C43.1175 46.5292 43.485 46.7476 43.7479 47.1435C43.922 47.4051 43.9982 47.7525 44.0269 48.1414L40.9956 48.1409L41.009 48.1414ZM45.2207 47.2562C45.1144 46.8565 44.8505 46.4514 44.6788 46.2663C44.4052 45.9739 44.1396 45.7674 43.874 45.6547C43.4906 45.4917 43.0781 45.408 42.6615 45.4087C42.133 45.4087 41.6528 45.498 41.2639 45.6796C40.8749 45.8626 40.5476 46.1115 40.2901 46.4227C40.0334 46.7339 39.8394 47.1014 39.716 47.5226C39.5929 47.9384 39.5309 48.3944 39.5309 48.8719C39.5309 49.3601 39.595 49.8135 39.723 50.2239C39.8512 50.637 40.0583 50.9992 40.3346 51.2996C40.6136 51.6028 40.9704 51.8388 41.3996 52.0051C41.8261 52.1701 42.3412 52.2557 42.9367 52.2538C44.16 52.2498 44.8038 51.9775 45.0667 51.83C45.1134 51.8037 45.1579 51.7583 45.1024 51.6277L44.8261 50.8524C44.7834 50.7368 44.6664 50.7787 44.6664 50.7787C44.3633 50.8919 43.9341 51.0952 42.9281 51.0925C42.2736 51.0915 41.7854 50.8975 41.4795 50.5936C41.1684 50.2824 41.0128 49.829 40.9886 49.1852L45.2271 49.1884C45.2271 49.1884 45.3387 49.1874 45.3502 49.0785C45.3548 49.0334 45.4954 48.2093 45.2236 47.257L45.2207 47.2562ZM31.8614 50.9045C31.6954 50.772 31.6723 50.7395 31.6173 50.6534C31.5334 50.5238 31.4904 50.3395 31.4904 50.1035C31.4904 49.7333 31.6138 49.465 31.8687 49.2853C31.866 49.2858 32.2335 48.9687 33.0973 48.9795C33.4818 48.9864 33.8654 49.0191 34.2454 49.0774V51.0008H34.246C34.246 51.0008 33.7095 51.1164 33.1032 51.1529C32.2421 51.2047 31.8612 50.905 31.8639 50.9058L31.8614 50.9045ZM33.5461 47.9268C33.3744 47.9142 33.1518 47.908 32.8862 47.908C32.524 47.908 32.1726 47.9531 31.8453 48.0416C31.5154 48.1307 31.2176 48.2686 30.9628 48.4521C30.7072 48.6344 30.497 48.873 30.3485 49.1495C30.1985 49.4285 30.1221 49.7558 30.1221 50.126C30.1221 50.5016 30.1872 50.8262 30.316 51.0917C30.4422 51.3552 30.6321 51.5829 30.8686 51.7543C31.1039 51.9255 31.3944 52.0521 31.7297 52.1272C32.0624 52.2031 32.4379 52.2415 32.851 52.2415C33.2856 52.2415 33.7175 52.205 34.136 52.1344C34.4924 52.073 34.8475 52.0039 35.201 51.9273C35.3421 51.8949 35.4987 51.8522 35.4987 51.8522C35.6034 51.8257 35.5953 51.7138 35.5953 51.7138L35.5929 47.8509C35.5929 47.0032 35.3665 46.3728 34.9196 45.9838C34.4743 45.5949 33.8224 45.399 32.9774 45.399C32.6608 45.399 32.1485 45.442 31.8427 45.5034C31.8427 45.5034 30.9199 45.6826 30.5389 45.9809C30.5389 45.9809 30.4552 46.0324 30.5008 46.1491L30.8013 46.9539C30.8386 47.0582 30.9402 47.0225 30.9402 47.0225C30.9402 47.0225 30.9722 47.0099 31.0097 46.9877C31.8225 46.545 32.8526 46.5584 32.8526 46.5584C33.3087 46.5584 33.6628 46.651 33.8989 46.8321C34.1298 47.0094 34.2476 47.2774 34.2476 47.8407V48.0196C33.8854 47.9671 33.5501 47.9368 33.5501 47.9368L33.5461 47.9268ZM67.6148 45.7459C67.6209 45.7317 67.6241 45.7165 67.6242 45.7011C67.6243 45.6857 67.6213 45.6704 67.6153 45.6562C67.6094 45.642 67.6007 45.6291 67.5897 45.6184C67.5786 45.6076 67.5656 45.5991 67.5512 45.5935C67.4791 45.5662 67.1193 45.4902 66.843 45.4731C66.3119 45.4398 66.0168 45.5294 65.7512 45.6485C65.4889 45.7668 65.1986 45.957 65.0377 46.177L65.0371 45.6619C65.0371 45.5911 64.987 45.534 64.9156 45.534H63.8318C63.7616 45.534 63.7106 45.5911 63.7106 45.6619V51.966C63.7107 52 63.7242 52.0327 63.7483 52.0568C63.7724 52.0808 63.805 52.0944 63.8391 52.0945H64.9497C64.9837 52.0944 65.0163 52.0808 65.0403 52.0567C65.0644 52.0327 65.0779 52 65.0779 51.966V48.8005C65.0779 48.3767 65.1246 47.9555 65.2177 47.69C65.3094 47.4273 65.4341 47.2178 65.5878 47.0676C65.7345 46.9225 65.9139 46.8149 66.1109 46.7537C66.2959 46.7007 66.4873 46.6738 66.6797 46.6738C66.901 46.6738 67.1437 46.7307 67.1437 46.7307C67.2253 46.7398 67.2706 46.6899 67.2983 46.6164C67.371 46.423 67.5772 45.8438 67.6175 45.7285" fill="#FFFFFE"></path>
<path fill-rule="evenodd" clip-rule="evenodd" d="M57.2427 42.8364C57.1055 42.7949 56.9658 42.7617 56.8245 42.7371C56.6345 42.7054 56.442 42.6905 56.2494 42.6926C55.484 42.6926 54.8807 42.9088 54.4571 43.3359C54.0365 43.7597 53.7503 44.4054 53.6068 45.255L53.555 45.5417H52.5944C52.5944 45.5417 52.4771 45.5369 52.4525 45.6649L52.2947 46.5448C52.2837 46.629 52.3199 46.6816 52.4326 46.681H53.3677L52.4189 51.9772C52.3446 52.4038 52.2596 52.7546 52.1654 53.0205C52.0726 53.2828 51.9819 53.4795 51.8703 53.6222C51.7622 53.7603 51.6598 53.862 51.483 53.9213C51.337 53.9704 51.1691 53.9929 50.9851 53.9929C50.8826 53.9929 50.7463 53.9758 50.6457 53.9556C50.5451 53.9358 50.4928 53.9132 50.4175 53.8816C50.4175 53.8816 50.3077 53.8397 50.2645 53.9497C50.2294 54.0396 49.9802 54.725 49.9507 54.8098C49.9206 54.8935 49.9628 54.9595 50.0159 54.9785C50.1403 55.023 50.2329 55.0515 50.4024 55.0914C50.638 55.147 50.8365 55.1505 51.0224 55.1505C51.4119 55.1505 51.7668 55.0957 52.0611 54.9895C52.3572 54.8825 52.615 54.696 52.843 54.4436C53.0896 54.1713 53.2446 53.8862 53.393 53.4972C53.5397 53.1117 53.6647 52.6331 53.7648 52.0754L54.7182 46.681H56.112C56.112 46.681 56.2295 46.6853 56.2539 46.5579L56.4117 45.678C56.4227 45.5938 56.3867 45.5412 56.2735 45.5417H54.9207C54.9274 45.5112 54.9888 45.0353 55.1442 44.5873C55.2104 44.396 55.3351 44.2418 55.4408 44.1358C55.5395 44.0349 55.6611 43.9592 55.7952 43.9153C55.9422 43.8698 56.0955 43.8477 56.2494 43.8498C56.3768 43.8498 56.5018 43.8651 56.597 43.885C56.7282 43.9129 56.7792 43.9276 56.8135 43.9378C56.9514 43.9799 56.9699 43.9392 56.997 43.8724L57.3205 42.9839C57.3538 42.8884 57.2728 42.8482 57.2427 42.8364ZM38.3375 51.9885C38.3375 52.0593 38.2871 52.117 38.2163 52.117H37.0942C37.0231 52.117 36.9727 52.0593 36.9727 51.9885V42.9568C36.9727 42.8863 37.0231 42.8291 37.0942 42.8291H38.2163C38.2871 42.8291 38.3375 42.8863 38.3375 42.9568V51.9885Z" fill="#FFFFFE"></path>
</g>
</g>
<defs>
<filter id="svg710503695_13396_filter0_d_2024_4427" x="-68.6" y="-23.6" width="193.897" height="193.897" filterUnits="userSpaceOnUse" color-interpolation-filters="sRGB">
<feFlood flood-opacity="0" result="BackgroundImageFix"></feFlood>
<feColorMatrix in="SourceAlpha" type="matrix" values="0 0 0 0 0 0 0 0 0 0 0 0 0 0 0 0 0 0 127 0" result="hardAlpha"></feColorMatrix>
<feOffset dx="-22" dy="23"></feOffset>
<feGaussianBlur stdDeviation="23.3"></feGaussianBlur>
<feComposite in2="hardAlpha" operator="out"></feComposite>
<feColorMatrix type="matrix" values="0 0 0 0 0.00392157 0 0 0 0 0.270588 0 0 0 0 0.94902 0 0 0 0.04 0"></feColorMatrix>
<feBlend mode="normal" in2="BackgroundImageFix" result="effect1_dropShadow_2024_4427"></feBlend>
<feBlend mode="normal" in="SourceGraphic" in2="effect1_dropShadow_2024_4427" result="shape"></feBlend>
</filter>
<clipPath id="svg710503695_13396_clip0_2024_4427">
<rect width="73.2343" height="51.2372" fill="white" transform="translate(13.7314 24.7168)"></rect>
</clipPath>
</defs>
</svg>