<svg width="19" height="15" viewBox="0 0 19 15" fill="none" xmlns="http://www.w3.org/2000/svg">
<path fill-rule="evenodd" clip-rule="evenodd" d="M12.6603 14.8502L10.1557 11.3699C10.1557 11.3699 14.9571 7.44801 16.5787 3.81805C16.5671 3.80581 10.9561 6.66124 10.9561 6.66124L8.66688 3.48029C12.8539 0.609215 15.2979 1.05169 15.951 1.95939L18.6503 5.71029C19.6506 7.1003 16.1071 12.1763 12.66 14.8502H12.6603ZM6.16228 0L8.66688 3.48029C8.66688 3.48029 3.86541 7.4022 2.24388 11.0322C2.25543 11.0444 7.8664 8.18897 7.8664 8.18897L10.1557 11.3699C5.96864 14.241 3.52464 13.7985 2.87158 12.8908L0.171931 9.13993C-0.828387 7.74992 2.71543 2.67389 6.16228 0Z" fill="currentColor"></path>
</svg>